<?xml version="1.0" standalone="no"?>
<!DOCTYPE svg PUBLIC "-//W3C//DTD SVG 20010904//EN"
 "http://www.w3.org/TR/2001/REC-SVG-20010904/DTD/svg10.dtd">
<svg version="1.0" xmlns="http://www.w3.org/2000/svg"
 width="512.000000pt" height="512.000000pt" viewBox="0 0 512.000000 512.000000"
 preserveAspectRatio="xMidYMid meet">
<metadata>
Created by potrace 1.14, written by Peter Selinger 2001-2017
</metadata>
<g transform="translate(0.000000,512.000000) scale(0.100000,-0.100000)"
fill="#000000" stroke="none">
<path d="M2216 5095 c-54 -8 -100 -15 -101 -17 -2 -2 -9 -44 -17 -93 -19 -139
-16 -619 5 -775 31 -222 62 -361 132 -600 49 -169 101 -378 126 -515 24 -128
36 -418 18 -446 -6 -10 -9 -10 -9 -1 0 6 -9 12 -20 12 -11 0 -20 -4 -20 -10 0
-5 -9 -10 -20 -10 -11 0 -20 -5 -20 -11 0 -8 -11 -9 -32 -5 -22 4 -28 3 -19
-3 12 -8 12 -12 -2 -25 -8 -9 -23 -16 -31 -16 -9 0 -16 -4 -16 -10 0 -5 -9
-10 -20 -10 -11 0 -20 -5 -20 -11 0 -8 -11 -9 -32 -5 -22 4 -28 3 -19 -3 12
-8 12 -12 -2 -25 -8 -9 -23 -16 -31 -16 -9 0 -16 -4 -16 -10 0 -5 -9 -10 -20
-10 -11 0 -20 -5 -20 -11 0 -6 -9 -9 -19 -6 -17 4 -18 2 -10 -20 5 -13 5 -22
0 -19 -4 3 -11 -38 -14 -92 -4 -63 -20 -154 -46 -260 -55 -220 -67 -325 -53
-447 20 -160 89 -342 200 -527 27 -46 69 -126 93 -178 24 -52 92 -183 152
-290 123 -224 178 -357 214 -514 14 -61 27 -113 29 -115 8 -9 309 19 419 38
169 30 324 69 446 112 l57 21 0 78 c0 43 6 105 13 137 7 32 13 105 13 163 0
129 -18 205 -118 505 -85 255 -110 376 -104 503 6 110 33 177 96 233 116 102
291 88 452 -36 146 -112 347 -398 459 -652 47 -108 114 -240 134 -267 13 -18
19 -13 101 90 120 149 231 317 300 452 55 108 64 139 32 113 -8 -6 -20 -10
-27 -9 -7 2 -13 -4 -14 -12 0 -10 -9 -14 -25 -13 -14 1 -19 0 -12 -3 19 -9 14
-24 -8 -24 -11 0 -20 -4 -20 -10 0 -5 -9 -10 -19 -10 -11 0 -22 -6 -25 -12 -5
-10 -7 -10 -12 0 -8 17 -24 15 -24 -4 0 -20 -24 -44 -44 -44 -9 0 -16 -4 -16
-10 0 -5 -9 -10 -20 -10 -11 0 -20 -5 -20 -11 0 -6 -10 -8 -22 -5 -13 3 -17 3
-10 0 27 -13 11 -26 -25 -21 -21 3 -30 3 -20 1 26 -8 21 -24 -8 -24 -14 0 -25
-4 -25 -9 0 -5 -9 -7 -20 -4 -14 4 -20 0 -20 -10 0 -10 -6 -13 -19 -10 -10 3
-22 0 -25 -6 -4 -7 1 -11 13 -11 12 0 21 -4 21 -9 0 -6 -12 -6 -31 1 -16 6
-33 7 -37 3 -4 -4 -1 -10 6 -12 17 -6 15 -30 -3 -30 -8 0 -12 4 -9 8 2 4 0 9
-5 11 -6 1 -64 115 -131 252 -142 294 -183 359 -290 459 -139 131 -311 198
-515 200 -266 2 -405 -132 -405 -389 0 -149 27 -243 189 -659 73 -189 136
-389 126 -404 -3 -5 -1 -11 3 -13 5 -1 12 -16 16 -33 5 -21 4 -26 -3 -15 -9
12 -11 12 -17 -3 -3 -9 -14 -17 -24 -17 -10 0 -21 -6 -23 -12 -4 -10 -8 -10
-15 1 -12 16 -32 6 -32 -16 0 -12 -3 -13 -14 -4 -10 8 -16 9 -21 1 -3 -5 -1
-10 4 -10 6 0 11 -4 11 -10 0 -5 -9 -10 -20 -10 -11 0 -20 -4 -20 -10 0 -5 -9
-10 -20 -10 -11 0 -20 -4 -20 -9 0 -5 -10 -7 -22 -5 -13 2 -17 2 -10 -2 25
-12 11 -25 -20 -20 -18 3 -27 3 -20 0 19 -9 14 -24 -8 -24 -11 0 -20 -5 -20
-11 0 -6 -9 -8 -20 -4 -14 4 -20 2 -20 -8 0 -8 -9 -22 -20 -32 -19 -17 -19
-17 -11 11 4 16 7 36 6 44 -1 8 -5 73 -9 145 -11 205 -41 392 -82 518 -9 26
-20 45 -24 42 -5 -3 -7 3 -5 13 6 35 -8 41 -51 22 -22 -11 -47 -26 -54 -35 -7
-8 -18 -15 -26 -15 -7 0 -16 -4 -19 -10 -4 -6 7 -10 24 -10 24 0 31 4 31 20 0
16 7 20 31 20 17 0 28 -4 24 -10 -3 -6 -1 -10 6 -10 24 0 -24 -40 -80 -67 -31
-15 -67 -37 -80 -50 -13 -13 -30 -23 -37 -23 -8 0 -14 -4 -14 -10 0 -5 -7 -10
-15 -10 -19 0 -55 -20 -76 -42 -9 -10 -24 -18 -33 -18 -9 0 -16 -4 -16 -10 0
-5 -12 -10 -27 -10 -27 1 -27 1 -9 15 21 16 10 20 -13 6 -16 -10 -51 21 -51
46 0 7 -4 13 -10 13 -16 0 -80 138 -101 218 -21 83 -25 208 -9 293 22 118 70
235 196 484 151 298 195 409 219 550 32 192 3 316 -170 705 -115 262 -211 573
-235 770 -14 121 -12 347 5 469 28 196 91 404 171 563 24 48 44 90 44 93 0 9
-133 3 -234 -10z m1101 -4557 c-3 -8 -6 -5 -6 6 -1 11 2 17 5 13 3 -3 4 -12 1
-19z"/>
<path d="M2771 4873 c-170 -466 -194 -560 -195 -773 -1 -206 42 -355 166 -576
189 -336 213 -387 258 -545 29 -104 37 -272 16 -369 -22 -104 -76 -209 -146
-283 l-58 -62 106 52 c122 60 214 86 363 104 364 42 912 -134 1146 -368 32
-32 101 -115 153 -183 52 -69 115 -145 140 -170 58 -57 150 -139 150 -133 0 3
7 0 15 -7 22 -18 29 -8 63 82 130 348 190 757 162 1108 -6 80 -13 146 -14 147
-2 2 -38 -7 -82 -18 -121 -33 -328 -31 -544 5 -91 15 -192 37 -224 48 -117 39
-187 105 -248 235 -66 140 -70 172 -78 613 -10 507 -17 543 -160 830 -42 85
-85 178 -95 205 -10 28 -23 55 -29 61 -12 13 -235 104 -253 104 -22 0 -58
-180 -58 -285 1 -176 72 -357 242 -622 150 -233 157 -264 123 -505 -29 -205
-25 -370 10 -463 62 -163 181 -266 375 -324 77 -23 299 -61 357 -61 31 0 35
-3 31 -20 -3 -11 -14 -20 -24 -20 -11 0 -19 -4 -19 -10 0 -5 7 -10 16 -10 8 0
12 -4 9 -10 -3 -5 -1 -10 6 -10 9 0 10 -3 3 -10 -12 -12 -44 -3 -44 12 0 12
-41 47 -55 48 -5 0 -3 -5 5 -10 8 -5 11 -10 5 -11 -5 0 -1 -4 10 -8 18 -7 17
-9 -10 -24 l-30 -16 43 -1 c23 0 42 -4 42 -10 0 -5 -8 -10 -18 -10 -10 0 -24
-9 -32 -20 -11 -16 -22 -19 -45 -15 -20 4 -26 3 -16 -3 11 -8 11 -10 0 -15
-18 -6 -13 -7 111 -37 157 -38 436 -162 448 -200 3 -8 0 -10 -8 -5 -9 5 -10 2
-5 -14 5 -18 2 -21 -23 -21 -16 0 -35 -7 -42 -15 -7 -8 -19 -15 -26 -15 -8 0
-14 -8 -14 -17 0 -13 -3 -14 -12 -5 -17 17 -28 15 -28 -7 0 -13 -9 -20 -30
-24 -17 -4 -30 -13 -30 -21 0 -30 -50 -9 -107 45 -64 61 -152 123 -228 161
-77 39 -173 66 -355 98 -241 44 -321 71 -427 149 -113 82 -194 303 -238 651
-28 218 -48 321 -77 395 -11 27 -67 143 -124 258 -135 268 -165 356 -171 502
-7 162 38 423 101 583 l24 61 -51 10 c-29 6 -72 13 -97 16 l-45 7 -84 -229z
m1777 -2172 c16 -1 16 -21 -1 -21 -7 0 -19 -9 -27 -20 -15 -21 -45 -27 -55
-10 -3 6 1 10 11 10 12 0 15 6 12 25 -5 23 -2 25 21 21 14 -2 32 -5 39 -5z
m355 -425 c-3 -4 -9 -2 -14 5 -13 22 -11 31 5 17 8 -7 12 -17 9 -22z"/>
<path d="M1295 4782 c-55 -32 -131 -79 -169 -104 -67 -45 -70 -49 -101 -130
-18 -46 -61 -144 -95 -218 -83 -180 -126 -292 -152 -398 -31 -125 -29 -302 5
-481 14 -74 24 -138 21 -143 -3 -4 0 -8 5 -8 6 0 11 -16 11 -36 0 -30 -2 -34
-14 -25 -10 9 -20 9 -40 0 -26 -12 -35 -29 -16 -29 6 0 10 -4 10 -9 0 -5 -18
-12 -40 -16 -25 -4 -40 -12 -40 -21 0 -17 -12 -18 -28 -2 -9 9 -12 8 -12 -5 0
-9 -5 -17 -10 -17 -6 0 -9 -3 -8 -7 2 -5 -1 -8 -7 -8 -5 0 -8 5 -6 10 3 6 6
65 9 133 3 93 -1 161 -18 275 -19 126 -22 179 -17 307 3 85 13 195 21 244 9
49 15 91 12 93 -2 2 -41 -67 -87 -154 -188 -356 -209 -426 -209 -702 0 -221
-10 -291 -54 -385 -38 -83 -110 -155 -198 -201 l-57 -30 -6 -60 c-8 -74 10
-367 30 -495 9 -52 29 -153 47 -223 l31 -128 31 7 c80 16 223 71 291 111 197
115 328 298 399 560 19 67 25 80 25 53 1 -68 -29 -298 -69 -530 -52 -296 -58
-374 -36 -460 31 -119 88 -192 289 -369 203 -179 244 -242 303 -468 20 -76 51
-168 69 -204 19 -37 31 -69 28 -73 -3 -3 -18 -3 -32 1 -24 6 -25 5 -9 -10 9
-9 24 -17 32 -17 9 0 16 -4 16 -9 0 -5 -9 -7 -20 -4 -14 4 -20 0 -20 -11 0
-21 -30 -9 -30 13 -1 14 -2 14 -11 -1 -5 -10 -16 -18 -24 -18 -7 0 -16 -6 -18
-12 -4 -10 -6 -10 -6 0 -1 6 -8 12 -16 12 -8 0 -15 5 -15 10 0 16 -17 12 -24
-6 -3 -8 -2 -12 4 -9 6 4 17 0 25 -9 11 -11 12 -16 2 -19 -22 -8 315 -165 458
-212 137 -46 328 -95 372 -95 l21 0 -20 72 c-50 177 -138 335 -246 445 -37 37
-132 123 -212 189 -167 140 -233 207 -289 293 -60 94 -76 149 -76 266 0 136
30 225 152 447 111 203 146 277 179 375 29 87 30 103 4 103 -11 0 -20 -7 -20
-15 0 -8 -4 -15 -10 -15 -5 0 -10 -7 -10 -15 0 -8 -3 -15 -6 -15 -3 0 -12 7
-20 15 -9 8 -20 15 -25 15 -14 0 -11 -28 3 -32 9 -3 8 -9 -4 -21 -14 -14 -21
-15 -42 -5 -15 6 -29 8 -34 3 -4 -4 -1 -10 6 -12 6 -3 12 -9 12 -14 0 -5 -12
-3 -27 4 -20 9 -27 9 -30 0 -3 -7 -11 -9 -19 -6 -10 4 -14 22 -14 62 0 155
-30 249 -178 556 -63 132 -125 267 -138 301 -94 250 -91 495 10 749 36 91 152
402 212 566 29 81 62 191 73 245 24 122 37 244 25 244 -5 0 -54 -26 -109 -58z
m75 -4426 c0 -2 -7 -9 -15 -16 -12 -10 -15 -10 -15 4 0 9 7 16 15 16 8 0 15
-2 15 -4z"/>
<path d="M4131 4518 c11 -40 29 -100 39 -133 66 -202 75 -352 34 -571 -36
-190 -32 -293 14 -387 78 -158 228 -244 412 -235 112 5 193 43 288 133 l66 62
-43 109 c-55 137 -95 218 -184 369 -59 99 -200 305 -209 305 -2 0 -3 -47 -3
-103 0 -78 4 -109 15 -122 9 -11 10 -16 3 -11 -7 4 -13 3 -13 -3 0 -5 -16 -15
-34 -22 -19 -7 -33 -16 -31 -20 3 -4 -10 -13 -28 -20 -17 -7 -34 -16 -37 -20
-3 -4 -6 52 -7 124 -1 98 -8 167 -28 267 -23 120 -30 139 -58 168 -33 34 -182
163 -204 176 -8 4 -5 -18 8 -66z"/>
<path d="M700 3200 c0 -5 5 -10 10 -10 6 0 10 5 10 10 0 6 -4 10 -10 10 -5 0
-10 -4 -10 -10z"/>
<path d="M2335 2690 c-3 -5 1 -10 10 -10 9 0 13 5 10 10 -3 6 -8 10 -10 10 -2
0 -7 -4 -10 -10z"/>
<path d="M2295 2670 c-3 -5 1 -10 10 -10 9 0 13 5 10 10 -3 6 -8 10 -10 10 -2
0 -7 -4 -10 -10z"/>
<path d="M4320 2612 c0 -5 -10 -14 -22 -20 -23 -10 -23 -11 5 -11 21 -1 27 4
27 19 0 11 -2 20 -5 20 -3 0 -5 -4 -5 -8z"/>
<path d="M2198 2603 c7 -3 16 -2 19 1 4 3 -2 6 -13 5 -11 0 -14 -3 -6 -6z"/>
<path d="M2158 2583 c7 -3 16 -2 19 1 4 3 -2 6 -13 5 -11 0 -14 -3 -6 -6z"/>
<path d="M4230 2560 c-13 -8 -13 -10 2 -10 9 0 20 5 23 10 8 13 -5 13 -25 0z"/>
<path d="M4268 2543 c7 -3 16 -2 19 1 4 3 -2 6 -13 5 -11 0 -14 -3 -6 -6z"/>
<path d="M2050 2520 c0 -5 5 -10 10 -10 6 0 10 5 10 10 0 6 -4 10 -10 10 -5 0
-10 -4 -10 -10z"/>
<path d="M1640 2265 c0 -8 5 -15 10 -15 6 0 10 7 10 15 0 8 -4 15 -10 15 -5 0
-10 -7 -10 -15z"/>
<path d="M155 1688 c20 -65 79 -194 92 -202 80 -45 143 -147 143 -233 0 -45 6
-60 47 -120 67 -99 77 -112 84 -113 4 0 29 43 55 96 46 91 49 101 49 173 -1
67 -5 84 -35 139 -60 112 -172 193 -347 253 -48 16 -88 29 -91 29 -2 0 0 -10
3 -22z"/>
<path d="M4875 1520 c-3 -5 -2 -10 4 -10 5 0 13 5 16 10 3 6 2 10 -4 10 -5 0
-13 -4 -16 -10z"/>
<path d="M3692 1484 c-77 -38 -112 -102 -112 -202 0 -91 29 -168 110 -297 141
-222 166 -331 119 -510 -24 -92 -38 -165 -32 -165 2 0 33 17 68 37 l65 37 0
97 c0 154 -35 262 -140 434 -96 157 -113 228 -75 309 45 94 182 89 282 -10 59
-59 84 -125 103 -274 15 -115 36 -192 70 -260 43 -85 48 -87 107 -35 l51 44
-24 46 c-12 26 -30 81 -39 123 -85 397 -166 557 -317 627 -75 35 -165 34 -236
-1z"/>
<path d="M4630 1380 c0 -5 5 -10 10 -10 6 0 10 5 10 10 0 6 -4 10 -10 10 -5 0
-10 -4 -10 -10z"/>
<path d="M2685 1150 c4 -6 11 -8 16 -5 14 9 11 15 -7 15 -8 0 -12 -5 -9 -10z"/>
<path d="M2645 1130 c3 -5 11 -10 16 -10 6 0 7 5 4 10 -3 6 -11 10 -16 10 -6
0 -7 -4 -4 -10z"/>
<path d="M2615 1079 c-16 -10 -40 -24 -52 -30 -28 -15 -30 -29 -3 -29 11 0 20
-4 20 -10 0 -5 7 -10 15 -10 8 0 14 3 14 8 -5 31 3 52 20 52 19 0 37 26 23 33
-4 3 -20 -4 -37 -14z"/>
<path d="M2725 1090 c-3 -5 1 -10 9 -10 9 0 16 5 16 10 0 6 -4 10 -9 10 -6 0
-13 -4 -16 -10z"/>
<path d="M2540 1070 c0 -5 5 -10 10 -10 6 0 10 5 10 10 0 6 -4 10 -10 10 -5 0
-10 -4 -10 -10z"/>
<path d="M2685 1070 c-3 -5 1 -10 10 -10 9 0 13 5 10 10 -3 6 -8 10 -10 10 -2
0 -7 -4 -10 -10z"/>
<path d="M2493 1005 c-18 -20 -16 -25 7 -25 13 0 20 7 20 20 0 23 -10 25 -27
5z"/>
<path d="M2400 990 c0 -5 5 -10 10 -10 6 0 10 5 10 10 0 6 -4 10 -10 10 -5 0
-10 -4 -10 -10z"/>
<path d="M2540 990 c0 -5 5 -10 10 -10 6 0 10 5 10 10 0 6 -4 10 -10 10 -5 0
-10 -4 -10 -10z"/>
<path d="M2400 950 c0 -5 9 -10 19 -10 11 0 21 -6 24 -12 2 -7 8 -10 12 -6 10
9 -19 38 -39 38 -9 0 -16 -4 -16 -10z"/>
<path d="M1133 508 c-41 -20 -35 -44 23 -82 30 -20 54 -35 54 -34 -1 19 -40
123 -46 124 -5 2 -19 -2 -31 -8z"/>
</g>
</svg>
